PathFileType	4	(X/Y/Z)	/Users/itak/Documents/Research/Walk-IL/dataset/trc/00223_00009.trc
DataRate	CameraRate	NumFrames	NumMarkers	Units	OrigDataRate	OrigDataStartFrame	OrigNumFrames
100.000000	100.000000	4	53	mm	100.000000	123	492
Frame#	Time	RPSI			LPSI			L3			STRN			T10			C7			CLAV			RBAK			LBAK			LSHO			LUPA			LAEL			LAOL			LWTS			LWPS			LFRA			LIFD			LHPS			LHTS			RSHO			RUPA			RAEL			RAOL			RWTS			RWPS			RFRA			RIFD			RHTS			RHPS			RBHD			LFHD			RFHD			LBHD			LHIP			RHIP			RASI			LASI			LKNE			LTHI			LANK			LTIP			LTOE			LMT1			LMT5			LHEE			RKNE			RANK			RTIP			RTOE			RMT1			RMT5			RHEE			RTHI			
		X1	Y1	Z1	X2	Y2	Z2	X3	Y3	Z3	X4	Y4	Z4	X5	Y5	Z5	X6	Y6	Z6	X7	Y7	Z7	X8	Y8	Z8	X9	Y9	Z9	X10	Y10	Z10	X11	Y11	Z11	X12	Y12	Z12	X13	Y13	Z13	X14	Y14	Z14	X15	Y15	Z15	X16	Y16	Z16	X17	Y17	Z17	X18	Y18	Z18	X19	Y19	Z19	X20	Y20	Z20	X21	Y21	Z21	X22	Y22	Z22	X23	Y23	Z23	X24	Y24	Z24	X25	Y25	Z25	X26	Y26	Z26	X27	Y27	Z27	X28	Y28	Z28	X29	Y29	Z29	X30	Y30	Z30	X31	Y31	Z31	X32	Y32	Z32	X33	Y33	Z33	X34	Y34	Z34	X35	Y35	Z35	X36	Y36	Z36	X37	Y37	Z37	X38	Y38	Z38	X39	Y39	Z39	X40	Y40	Z40	X41	Y41	Z41	X42	Y42	Z42	X43	Y43	Z43	X44	Y44	Z44	X45	Y45	Z45	X46	Y46	Z46	X47	Y47	Z47	X48	Y48	Z48	X49	Y49	Z49	X50	Y50	Z50	X51	Y51	Z51	X52	Y52	Z52	X53	Y53	Z53	

124	1.23	-1118.147338867188	1049.61328125	-166.3578643798828	-1108.079467773438	1055.093383789062	-46.06955337524414	-1112.568725585938	1143.189086914062	-98.64008331298828	-1368.962646484375	1314.357055664062	-66.33474731445312	-1114.66259765625	1268.336791992188	-114.164909362793	-1191.840209960938	1526.057861328125	-106.9897155761719	-1350.045654296875	1433.634155273438	-74.68077087402344	-1122.84765625	1389.612670898438	-193.2471771240234	-1152.162475585938	1492.835815429688	0.7706289887428284	-1231.5283203125	1491.407348632812	73.31916046142578	-1179.116577148438	1376.19287109375	146.7269439697266	-1167.416625976562	1165.181518554688	175.1408233642578	-1104.703125	1155.648193359375	114.8856201171875	-1252.477416992188	926.1021728515625	133.3570251464844	-1210.382568359375	909.4890747070312	204.953857421875	-1179.621459960938	1056.450073242188	192.1115264892578	-1242.923583984375	730.45458984375	137.0630035400391	-1221.194213867188	820.379150390625	201.1805267333984	-1274.755981445312	822.3228149414062	159.0800323486328	-1279.584838867188	1476.763061523438	-259.9283447265625	-1274.109375	1412.8173828125	-329.924072265625	-1267.47998046875	1131.416137695312	-372.5516967773438	-1207.195922851562	1123.1357421875	-297.7703857421875	-1392.285400390625	922.2547607421875	-291.8298950195312	-1359.638549804688	905.3797607421875	-367.7289123535156	-1297.859130859375	1063.5791015625	-376.5033874511719	-1414.015747070312	730.4069213867188	-279.0595703125	-1439.52392578125	803.88232421875	-293.7707214355469	-1402.381591796875	800.11865234375	-356.0798645019531	-1228.254760742188	1667.503662109375	-149.9853668212891	-1419.973999023438	1728.119750976562	-42.05461502075195	-1426.896728515625	1723.516967773438	-141.7126159667969	-1263.1640625	1682.470825195312	-14.79716968536377	-1199.768310546875	995.3016357421875	102.80224609375	-1222.521118164062	1008.783752441406	-265.060791015625	-1319.1259765625	1048.705810546875	-221.0791015625	-1302.8701171875	1036.867553710938	60.3531494140625	-1355.945190429688	523.1024169921875	76.44132995605469	-1314.931396484375	663.4019165039062	98.96205139160156	-1086.632690429688	113.1026000976562	42.00275802612305	-1220.542358398438	333.6484375	68.51310729980469	-1299.392700195312	66.88104248046875	31.95193099975586	-1242.02099609375	75.12870025634766	-24.07979583740234	-1201.411865234375	73.70095062255859	82.29856109619141	-1041.593994140625	140.1102905273438	-19.41754722595215	-1302.267333984375	518.7221069335938	-212.2725982666016	-1290.421020507812	37.62178802490234	-166.4279632568359	-1320.980590820312	405.5499267578125	-191.0300140380859	-1503.726806640625	46.34023284912109	-126.1863861083984	-1448.574584960938	46.01294326782227	-83.54899597167969	-1399.897216796875	38.67934036254883	-194.5270080566406	-1230.047729492188	40.0612907409668	-105.6319808959961	nan	nan	nan	
125	1.24	-1115.314697265625	1049.334594726562	-165.5144805908203	-1105.39892578125	1054.825927734375	-45.21925354003906	-1109.80517578125	1142.835693359375	-97.80911254882812	-1365.920776367188	1314.329711914062	-65.76389312744141	-1111.624755859375	1268.017822265625	-113.3993682861328	-1188.58837890625	1525.824829101562	-106.5206832885742	-1346.903930664062	1433.580078125	-74.23903656005859	-1119.661010742188	1389.2119140625	-192.6107788085938	-1149.068969726562	1492.675903320312	1.310129046440125	-1228.5244140625	1491.442749023438	73.81137847900391	-1176.153930664062	1376.23828125	147.358154296875	-1164.2470703125	1165.242797851562	175.8758239746094	-1101.51611328125	1155.779541015625	115.6165771484375	-1248.513793945312	925.811767578125	134.2865753173828	-1206.394287109375	909.4422607421875	205.9147033691406	-1176.196166992188	1056.49169921875	192.9442291259766	-1238.190673828125	730.1724853515625	138.1349487304688	-1216.796997070312	820.274169921875	202.2396240234375	-1270.362182617188	821.92041015625	160.0508728027344	-1276.249267578125	1476.423706054688	-259.4677734375	-1270.802734375	1412.426513671875	-329.4052124023438	-1264.590576171875	1130.9560546875	-371.7681579589844	-1203.858032226562	1122.635864257812	-296.8212585449219	-1390.083129882812	922.3778686523438	-290.6162719726562	-1357.444458007812	905.1788330078125	-366.451416015625	-1295.179809570312	1063.178955078125	-375.6097717285156	-1412.425903320312	730.63037109375	-277.3298645019531	-1437.753540039062	804.1663818359375	-292.2847900390625	-1400.6103515625	800.113525390625	-354.56884765625	-1225.032958984375	1667.32861328125	-149.7840270996094	-1416.792602539062	1727.951049804688	-41.88300323486328	-1423.744995117188	1723.263916015625	-141.5437164306641	-1259.958374023438	1682.391479492188	-14.60226440429688	-1197.211181640625	995.0404663085938	103.615608215332	-1219.594482421875	1008.65185546875	-264.3354797363281	-1316.415893554688	1048.648803710938	-220.4968719482422	-1300.305053710938	1036.66943359375	61.04403305053711	-1351.697143554688	522.172119140625	76.59521484375	-1311.625366210938	662.7666015625	99.12711334228516	-1074.920166015625	117.0820159912109	43.11558532714844	-1213.217041015625	335.0367736816406	69.16419982910156	-1286.650268554688	66.85771179199219	31.68212509155273	-1229.183227539062	76.34980773925781	-24.00353622436523	-1189.124755859375	75.4459228515625	82.60450744628906	-1030.097778320312	145.0393218994141	-17.96591186523438	-1301.18017578125	518.7789306640625	-211.9061279296875	-1290.445190429688	37.59818649291992	-166.4866180419922	-1320.2705078125	405.6404113769531	-190.7442474365234	-1503.712768554688	46.31475448608398	-126.1593017578125	-1448.57275390625	46.02067184448242	-83.531494140625	-1399.91064453125	38.68255615234375	-194.5233459472656	-1230.04736328125	40.04250717163086	-105.6870574951172	nan	nan	nan	
126	1.25	-1112.43212890625	1049.033203125	-164.6237945556641	-1102.68017578125	1054.532104492188	-44.32154846191406	-1107.002685546875	1142.441528320312	-96.92659759521484	-1362.834106445312	1314.291381835938	-65.18894958496094	-1108.52587890625	1267.659301757812	-112.5595016479492	-1185.240600585938	1525.559204101562	-105.9837341308594	-1343.68115234375	1433.512451171875	-73.77124786376953	-1116.36669921875	1388.777587890625	-191.8946990966797	-1145.909545898438	1492.47998046875	1.925415873527527	-1225.470092773438	1491.447509765625	74.35665130615234	-1173.162231445312	1376.238647460938	148.0503845214844	-1161.073486328125	1165.262451171875	176.6870880126953	-1098.314331054688	1155.853393554688	116.4227066040039	-1244.619018554688	925.5220947265625	135.2725524902344	-1202.503051757812	909.3751831054688	206.9291076660156	-1172.79638671875	1056.507080078125	193.8439636230469	-1233.666870117188	729.8983764648438	139.2707061767578	-1212.543090820312	820.1627197265625	203.3498382568359	-1266.10986328125	821.5203857421875	161.0680389404297	-1272.778686523438	1476.072265625	-258.9684143066406	-1267.345092773438	1412.013305664062	-328.8436584472656	-1261.517211914062	1130.468505859375	-370.8913269042969	-1200.34228515625	1122.115844726562	-295.7183227539062	-1387.73828125	922.4749755859375	-289.394287109375	-1355.060302734375	904.9580688476562	-365.138671875	-1292.30908203125	1062.753295898438	-374.639404296875	-1410.693725585938	730.8270263671875	-275.60791015625	-1435.83984375	804.418212890625	-290.8264770507812	-1398.647705078125	800.0833129882812	-353.0562133789062	-1221.685913085938	1667.14306640625	-149.5142669677734	-1413.512084960938	1727.762329101562	-41.68223571777344	-1420.473388671875	1723.004638671875	-141.3507537841797	-1256.666748046875	1682.303588867188	-14.34892654418945	-1194.623046875	994.7222900390625	104.4404144287109	-1216.617065429688	1008.493347167969	-263.5801391601562	-1313.659423828125	1048.579956054688	-219.9070129394531	-1297.71875	1036.440795898438	61.75299072265625	-1347.10302734375	521.137451171875	76.83667755126953	-1308.039184570312	662.0411987304688	99.37088775634766	-1063.286499023438	120.8346557617188	44.47309494018555	-1205.701171875	336.2529907226562	69.97901153564453	-1273.943969726562	66.79611968994141	31.6030387878418	-1216.393310546875	77.46316528320312	-23.72284126281738	-1176.924560546875	77.07854461669922	83.13713836669922	-1018.65087890625	149.7011260986328	-16.26339149475098	-1300.006225585938	518.826171875	-211.5239868164062	-1290.474243164062	37.57886123657227	-166.5430603027344	-1319.493774414062	405.73046875	-190.4570159912109	-1503.696044921875	46.29569244384766	-126.1304702758789	-1448.573852539062	46.02834701538086	-83.51321411132812	-1399.922241210938	38.68550872802734	-194.5172119140625	-1230.03759765625	40.02432632446289	-105.7410049438477	nan	nan	nan	
127	1.26	-1109.488525390625	1048.704833984375	-163.6867828369141	-1099.92138671875	1054.205810546875	-43.37436676025391	-1104.149291992188	1142.011962890625	-95.99150848388672	-1359.701782226562	1314.23583984375	-64.61264038085938	-1105.368896484375	1267.262084960938	-111.6461029052734	-1181.799072265625	1525.2587890625	-105.3787841796875	-1340.377319335938	1433.426147460938	-73.27854919433594	-1112.9580078125	1388.311157226562	-191.0988006591797	-1142.683715820312	1492.247680664062	2.616262674331665	-1222.363403320312	1491.415771484375	74.95667266845703	-1170.139404296875	1376.19482421875	148.8022308349609	-1157.902099609375	1165.240356445312	177.5739288330078	-1095.100219726562	1155.8701171875	117.3097457885742	-1240.800903320312	925.2257690429688	136.3098602294922	-1198.724365234375	909.2860107421875	207.9982147216797	-1169.42529296875	1056.493774414062	194.8093719482422	-1229.340209960938	729.6317749023438	140.4731292724609	-1208.45458984375	820.0435180664062	204.5101623535156	-1262.009765625	821.1259765625	162.1271057128906	-1269.174438476562	1475.7060546875	-258.4299926757812	-1263.735961914062	1411.575805664062	-328.2383728027344	-1258.263305664062	1129.9521484375	-369.9250183105469	-1196.704345703125	1121.57861328125	-294.4859313964844	-1385.246704101562	922.5405883789062	-288.1633911132812	-1352.491943359375	904.7154541015625	-363.7946166992188	-1289.25244140625	1062.30029296875	-373.5947570800781	-1408.823852539062	730.9939575195312	-273.901611328125	-1433.769775390625	804.6317138671875	-289.3918151855469	-1396.485717773438	800.0221557617188	-351.5421447753906	-1218.213989257812	1666.939819335938	-149.1721649169922	-1410.1298828125	1727.554565429688	-41.45121002197266	-1417.073364257812	1722.73974609375	-141.1287994384766	-1253.28125	1682.1962890625	-14.03530693054199	-1192.013916015625	994.3407592773438	105.269287109375	-1213.579833984375	1008.301696777344	-262.79736328125	-1310.842895507812	1048.492431640625	-219.3076934814453	-1295.104614257812	1036.174926757812	62.47809982299805	-1342.161254882812	520.0009155273438	77.1810302734375	-1304.158813476562	661.2291870117188	99.70307159423828	-1051.778686523438	124.3029556274414	46.07107162475586	-1198.021362304688	337.2718811035156	70.96007537841797	-1261.3369140625	66.67079925537109	31.64873695373535	-1203.70458984375	78.45297241210938	-23.2685489654541	-1164.878173828125	78.54584503173828	83.85032653808594	-1007.271911621094	154.0497589111328	-14.30705738067627	-1298.735595703125	518.8610229492188	-211.1283264160156	-1290.503295898438	37.5615119934082	-166.5959625244141	-1318.638916015625	405.8164978027344	-190.1664886474609	-1503.675170898438	46.28545379638672	-126.0991439819336	-1448.5771484375	46.03733444213867	-83.49504089355469	-1399.931640625	38.68720626831055	-194.5087127685547	-1230.016357421875	40.00592422485352	-105.7980041503906	nan	nan	nan	
